<svg width="92" height="11" viewBox="0 0 92 11" fill="none" xmlns="http://www.w3.org/2000/svg">
<path d="M9.968 5.142C9.968 5.97267 9.84667 6.70533 9.604 7.34C9.36133 7.97467 9.03 8.50667 8.61 8.936C8.19933 9.356 7.71867 9.67333 7.168 9.888C6.61733 10.1027 6.034 10.21 5.418 10.21C4.802 10.21 4.21867 10.1027 3.668 9.888C3.11733 9.67333 2.632 9.356 2.212 8.936C1.80133 8.50667 1.47467 7.97467 1.232 7.34C0.989333 6.70533 0.868 5.97267 0.868 5.142C0.868 4.31133 0.989333 3.58333 1.232 2.958C1.47467 2.32333 1.80133 1.796 2.212 1.376C2.632 0.946666 3.11733 0.624666 3.668 0.409999C4.21867 0.195333 4.802 0.0879999 5.418 0.0879999C6.034 0.0879999 6.61733 0.195333 7.168 0.409999C7.71867 0.624666 8.19933 0.946666 8.61 1.376C9.03 1.796 9.36133 2.32333 9.604 2.958C9.84667 3.58333 9.968 4.31133 9.968 5.142ZM8.96 5.142C8.96 4.48867 8.876 3.90533 8.708 3.392C8.54 2.86933 8.302 2.426 7.994 2.062C7.686 1.698 7.31267 1.42267 6.874 1.236C6.44467 1.04 5.95933 0.942 5.418 0.942C4.87667 0.942 4.38667 1.04 3.948 1.236C3.51867 1.42267 3.15 1.698 2.842 2.062C2.534 2.426 2.296 2.86933 2.128 3.392C1.96 3.90533 1.876 4.48867 1.876 5.142C1.876 5.79533 1.96 6.38333 2.128 6.906C2.296 7.41933 2.534 7.858 2.842 8.222C3.15 8.586 3.51867 8.866 3.948 9.062C4.38667 9.258 4.87667 9.356 5.418 9.356C5.95933 9.356 6.44467 9.258 6.874 9.062C7.31267 8.866 7.686 8.586 7.994 8.222C8.302 7.858 8.54 7.41933 8.708 6.906C8.876 6.38333 8.96 5.79533 8.96 5.142ZM15.6018 10.21C14.9578 10.21 14.4071 10.112 13.9498 9.916C13.5018 9.72 13.1378 9.44933 12.8578 9.104C12.5778 8.75867 12.3725 8.35733 12.2418 7.9C12.1205 7.43333 12.0598 6.934 12.0598 6.402V0.298H13.0118V6.276C13.0118 6.808 13.0725 7.27 13.1938 7.662C13.3245 8.04467 13.5018 8.362 13.7258 8.614C13.9498 8.866 14.2205 9.05267 14.5378 9.174C14.8551 9.29533 15.2098 9.356 15.6018 9.356C15.9938 9.356 16.3485 9.29533 16.6658 9.174C16.9831 9.05267 17.2538 8.866 17.4778 8.614C17.7018 8.362 17.8745 8.04467 17.9958 7.662C18.1265 7.27 18.1918 6.808 18.1918 6.276V0.298H19.1438V6.402C19.1438 6.934 19.0785 7.43333 18.9478 7.9C18.8265 8.35733 18.6258 8.75867 18.3458 9.104C18.0658 9.44933 17.6971 9.72 17.2398 9.916C16.7918 10.112 16.2458 10.21 15.6018 10.21ZM28.0854 3.21C28.0854 3.938 27.8941 4.512 27.5114 4.932C27.1288 5.352 26.6248 5.65533 25.9994 5.842C26.1488 6.02867 26.3401 6.28067 26.5734 6.598C26.8161 6.91533 27.0634 7.26533 27.3154 7.648C27.5674 8.02133 27.8148 8.41333 28.0574 8.824C28.3001 9.23467 28.5054 9.62667 28.6734 10H27.6514C27.4554 9.62667 27.2408 9.25333 27.0074 8.88C26.7834 8.50667 26.5501 8.14733 26.3074 7.802C26.0741 7.44733 25.8454 7.12067 25.6214 6.822C25.3974 6.52333 25.2014 6.262 25.0334 6.038C24.7348 6.066 24.4361 6.08 24.1374 6.08H22.5694V10H21.6174V0.48C21.9534 0.386666 22.3454 0.321333 22.7934 0.284C23.2508 0.237333 23.6708 0.213999 24.0534 0.213999C25.3881 0.213999 26.3914 0.465999 27.0634 0.969999C27.7448 1.474 28.0854 2.22067 28.0854 3.21ZM24.1654 1.04C23.8108 1.04 23.4981 1.054 23.2274 1.082C22.9661 1.10067 22.7468 1.11933 22.5694 1.138V5.268H23.8854C24.3241 5.268 24.7394 5.24933 25.1314 5.212C25.5234 5.16533 25.8641 5.072 26.1534 4.932C26.4428 4.78267 26.6714 4.57267 26.8394 4.302C27.0074 4.03133 27.0914 3.66267 27.0914 3.196C27.0914 2.76667 27.0074 2.412 26.8394 2.132C26.6714 1.852 26.4521 1.63267 26.1814 1.474C25.9108 1.306 25.5981 1.194 25.2434 1.138C24.8981 1.07267 24.5388 1.04 24.1654 1.04ZM35.5433 9.384C36.2993 9.384 36.8873 9.24867 37.3073 8.978C37.7273 8.698 37.9373 8.25 37.9373 7.634C37.9373 7.27933 37.8673 6.98533 37.7273 6.752C37.5966 6.50933 37.4193 6.30867 37.1953 6.15C36.9713 5.982 36.7146 5.842 36.4253 5.73C36.1359 5.60867 35.8326 5.48267 35.5153 5.352C35.1139 5.19333 34.7546 5.03 34.4373 4.862C34.1199 4.694 33.8493 4.50733 33.6253 4.302C33.4013 4.08733 33.2286 3.84467 33.1073 3.574C32.9953 3.30333 32.9393 2.986 32.9393 2.622C32.9393 1.79133 33.2146 1.16133 33.7653 0.731999C34.3159 0.302666 35.0813 0.0879999 36.0613 0.0879999C36.3226 0.0879999 36.5793 0.106666 36.8313 0.143999C37.0833 0.181333 37.3166 0.232666 37.5313 0.298C37.7553 0.354 37.9559 0.419333 38.1333 0.494C38.3199 0.568667 38.4739 0.648 38.5953 0.731999L38.2593 1.53C37.9886 1.34333 37.6573 1.194 37.2653 1.082C36.8826 0.969999 36.4673 0.913999 36.0193 0.913999C35.7113 0.913999 35.4266 0.946666 35.1653 1.012C34.9133 1.068 34.6939 1.166 34.5073 1.306C34.3206 1.43667 34.1713 1.60467 34.0593 1.81C33.9566 2.01533 33.9053 2.26267 33.9053 2.552C33.9053 2.85067 33.9613 3.10267 34.0733 3.308C34.1853 3.51333 34.3393 3.69067 34.5353 3.84C34.7406 3.98933 34.9786 4.12467 35.2493 4.246C35.5199 4.36733 35.8139 4.49333 36.1313 4.624C36.5139 4.78267 36.8733 4.94133 37.2093 5.1C37.5546 5.25867 37.8533 5.44533 38.1053 5.66C38.3573 5.87467 38.5579 6.136 38.7073 6.444C38.8566 6.752 38.9313 7.13 38.9313 7.578C38.9313 8.45533 38.6233 9.11333 38.0073 9.552C37.4006 9.99067 36.5746 10.21 35.5293 10.21C35.1559 10.21 34.8153 10.1867 34.5073 10.14C34.1993 10.0933 33.9239 10.0373 33.6813 9.972C33.4386 9.89733 33.2333 9.82267 33.0653 9.748C32.8973 9.67333 32.7666 9.608 32.6733 9.552L32.9813 8.726C33.0746 8.782 33.2006 8.84733 33.3593 8.922C33.5179 8.99667 33.7046 9.07133 33.9193 9.146C34.1339 9.21133 34.3766 9.26733 34.6473 9.314C34.9179 9.36067 35.2166 9.384 35.5433 9.384ZM40.6897 10V0.298H46.2897V1.124H41.6417V4.498H45.7857V5.31H41.6417V9.174H46.6537V10H40.6897ZM54.9233 3.21C54.9233 3.938 54.732 4.512 54.3493 4.932C53.9666 5.352 53.4626 5.65533 52.8373 5.842C52.9866 6.02867 53.178 6.28067 53.4113 6.598C53.654 6.91533 53.9013 7.26533 54.1533 7.648C54.4053 8.02133 54.6526 8.41333 54.8953 8.824C55.138 9.23467 55.3433 9.62667 55.5113 10H54.4893C54.2933 9.62667 54.0786 9.25333 53.8453 8.88C53.6213 8.50667 53.388 8.14733 53.1453 7.802C52.912 7.44733 52.6833 7.12067 52.4593 6.822C52.2353 6.52333 52.0393 6.262 51.8713 6.038C51.5726 6.066 51.274 6.08 50.9753 6.08H49.4073V10H48.4553V0.48C48.7913 0.386666 49.1833 0.321333 49.6313 0.284C50.0886 0.237333 50.5086 0.213999 50.8913 0.213999C52.226 0.213999 53.2293 0.465999 53.9013 0.969999C54.5826 1.474 54.9233 2.22067 54.9233 3.21ZM51.0033 1.04C50.6486 1.04 50.336 1.054 50.0653 1.082C49.804 1.10067 49.5846 1.11933 49.4073 1.138V5.268H50.7233C51.162 5.268 51.5773 5.24933 51.9693 5.212C52.3613 5.16533 52.702 5.072 52.9913 4.932C53.2806 4.78267 53.5093 4.57267 53.6773 4.302C53.8453 4.03133 53.9293 3.66267 53.9293 3.196C53.9293 2.76667 53.8453 2.412 53.6773 2.132C53.5093 1.852 53.29 1.63267 53.0193 1.474C52.7486 1.306 52.436 1.194 52.0813 1.138C51.736 1.07267 51.3766 1.04 51.0033 1.04ZM57.0536 0.298C57.3336 1.12867 57.6043 1.91733 57.8656 2.664C58.1269 3.40133 58.3836 4.12 58.6356 4.82C58.8876 5.51067 59.1443 6.192 59.4056 6.864C59.6669 7.52667 59.9469 8.19867 60.2456 8.88C60.5349 8.208 60.8103 7.54067 61.0716 6.878C61.3423 6.206 61.6036 5.52467 61.8556 4.834C62.1169 4.134 62.3736 3.41067 62.6256 2.664C62.8869 1.91733 63.1576 1.12867 63.4376 0.298H64.4456C64.0163 1.52067 63.6289 2.594 63.2836 3.518C62.9476 4.442 62.6303 5.27733 62.3316 6.024C62.0423 6.77067 61.7623 7.46133 61.4916 8.096C61.2303 8.72133 60.9549 9.356 60.6656 10H59.7836C59.4943 9.356 59.2143 8.72133 58.9436 8.096C58.6729 7.46133 58.3883 6.77067 58.0896 6.024C57.8003 5.27733 57.4829 4.442 57.1376 3.518C56.8016 2.594 56.4189 1.52067 55.9896 0.298H57.0536ZM65.8459 0.298H66.7979V10H65.8459V0.298ZM73.3506 10.21C72.7253 10.21 72.1419 10.098 71.6006 9.874C71.0686 9.65 70.6019 9.32333 70.2006 8.894C69.8086 8.46467 69.4959 7.93733 69.2626 7.312C69.0386 6.67733 68.9266 5.954 68.9266 5.142C68.9266 4.33 69.0479 3.61133 69.2906 2.986C69.5426 2.35133 69.8739 1.81933 70.2846 1.39C70.6953 0.960666 71.1713 0.638666 71.7126 0.424C72.2539 0.2 72.8186 0.0879999 73.4066 0.0879999C73.7706 0.0879999 74.1019 0.111333 74.4006 0.158C74.6993 0.204666 74.9606 0.265333 75.1846 0.339999C75.4086 0.405333 75.5999 0.475333 75.7586 0.55C75.9173 0.615333 76.0386 0.675999 76.1226 0.731999L75.8146 1.558C75.5813 1.418 75.2826 1.28267 74.9186 1.152C74.5639 1.012 74.1206 0.942 73.5886 0.942C72.9819 0.942 72.4499 1.04467 71.9926 1.25C71.5446 1.45533 71.1666 1.74467 70.8586 2.118C70.5506 2.49133 70.3173 2.93467 70.1586 3.448C70.0093 3.96133 69.9346 4.53067 69.9346 5.156C69.9346 5.8 70.0093 6.38333 70.1586 6.906C70.3173 7.41933 70.5459 7.858 70.8446 8.222C71.1433 8.586 71.5073 8.866 71.9366 9.062C72.3753 9.258 72.8746 9.356 73.4346 9.356C74.0506 9.356 74.5639 9.3 74.9746 9.188C75.3946 9.06667 75.7119 8.94533 75.9266 8.824L76.1926 9.636C76.1273 9.68267 76.0153 9.73867 75.8566 9.804C75.6979 9.86 75.4973 9.92067 75.2546 9.986C75.0119 10.0513 74.7319 10.1027 74.4146 10.14C74.0973 10.1867 73.7426 10.21 73.3506 10.21ZM77.8498 10V0.298H83.4498V1.124H78.8018V4.498H82.9458V5.31H78.8018V9.174H83.8138V10H77.8498ZM87.7015 9.384C88.4575 9.384 89.0455 9.24867 89.4655 8.978C89.8855 8.698 90.0955 8.25 90.0955 7.634C90.0955 7.27933 90.0255 6.98533 89.8855 6.752C89.7548 6.50933 89.5775 6.30867 89.3535 6.15C89.1295 5.982 88.8728 5.842 88.5835 5.73C88.2941 5.60867 87.9908 5.48267 87.6735 5.352C87.2721 5.19333 86.9128 5.03 86.5955 4.862C86.2781 4.694 86.0075 4.50733 85.7835 4.302C85.5595 4.08733 85.3868 3.84467 85.2655 3.574C85.1535 3.30333 85.0975 2.986 85.0975 2.622C85.0975 1.79133 85.3728 1.16133 85.9235 0.731999C86.4741 0.302666 87.2395 0.0879999 88.2195 0.0879999C88.4808 0.0879999 88.7375 0.106666 88.9895 0.143999C89.2415 0.181333 89.4748 0.232666 89.6895 0.298C89.9135 0.354 90.1141 0.419333 90.2915 0.494C90.4781 0.568667 90.6321 0.648 90.7535 0.731999L90.4175 1.53C90.1468 1.34333 89.8155 1.194 89.4235 1.082C89.0408 0.969999 88.6255 0.913999 88.1775 0.913999C87.8695 0.913999 87.5848 0.946666 87.3235 1.012C87.0715 1.068 86.8521 1.166 86.6655 1.306C86.4788 1.43667 86.3295 1.60467 86.2175 1.81C86.1148 2.01533 86.0635 2.26267 86.0635 2.552C86.0635 2.85067 86.1195 3.10267 86.2315 3.308C86.3435 3.51333 86.4975 3.69067 86.6935 3.84C86.8988 3.98933 87.1368 4.12467 87.4075 4.246C87.6781 4.36733 87.9721 4.49333 88.2895 4.624C88.6721 4.78267 89.0315 4.94133 89.3675 5.1C89.7128 5.25867 90.0115 5.44533 90.2635 5.66C90.5155 5.87467 90.7161 6.136 90.8655 6.444C91.0148 6.752 91.0895 7.13 91.0895 7.578C91.0895 8.45533 90.7815 9.11333 90.1655 9.552C89.5588 9.99067 88.7328 10.21 87.6875 10.21C87.3141 10.21 86.9735 10.1867 86.6655 10.14C86.3575 10.0933 86.0821 10.0373 85.8395 9.972C85.5968 9.89733 85.3915 9.82267 85.2235 9.748C85.0555 9.67333 84.9248 9.608 84.8315 9.552L85.1395 8.726C85.2328 8.782 85.3588 8.84733 85.5175 8.922C85.6761 8.99667 85.8628 9.07133 86.0775 9.146C86.2921 9.21133 86.5348 9.26733 86.8055 9.314C87.0761 9.36067 87.3748 9.384 87.7015 9.384Z" fill="#C2C2C2"/>
</svg>
